<svg xmlns="http://www.w3.org/2000/svg" viewBox="0 0 194 75" style="enable-background:new 0 0 194 75" xml:space="preserve"><path d="M170.7 62.2 155.9 45l12.2-14.2c.9-1.1.4-2.5-.8-2.8h-11.6c-.8.2-1.3.6-1.7 1l-11.2 13V1.9c0-.9-.8-1.8-1.8-1.8h-10.3c-.9 0-1.8.8-1.8 1.8v61.4c0 .9.8 1.8 1.8 1.8H141c.9 0 1.8-.8 1.8-1.8V48.1l12.6 16.1c.3.4 1 .7 1.4.7h12.5c1.6.1 2.4-1.5 1.4-2.7z" style="fill:#f06"/><path d="M79.8 7c16 0 29.2 13.5 29.2 29.4C109 52.6 95.8 66 79.8 66S50.6 52.5 50.6 36.4C50.6 20.5 63.8 7 79.8 7zm0 40.9c6.2 0 11.1-5.2 11.1-11.5 0-6.2-4.9-11.2-11.1-11.2s-11.1 5.1-11.1 11.2c0 6.3 5 11.5 11.1 11.5z" style="fill:#66c"/><path d="M.6 28.5c-.5-1.3.4-2.4 1.8-2.4h9.3c.6 0 1.6.5 1.8 1.2l5.1 13.4h.1L28 26c.2-.3.7-.8 1.6-.8h1c.7 0 1.3.4 1.5.8l9.4 14.7h.1l5-13.4c.4-.9.9-1.2 2-1.2h9.1c1.4 0 2.2 1.2 1.8 2.4l-13 36.4c-.2.7-1.1 1.2-1.8 1.2h-.4c-.5 0-1.4-.4-1.6-.8L29.8 45.8h-.1L17.3 65.3c-.3.4-1.1.8-1.6.8h-.5c-.6 0-1.6-.5-1.7-1.2L.6 28.5z" style="fill:#fc0"/><path d="M102.1 28.5c0-1.3 1.1-2.3 2.3-2.3h5.7c1.3 0 1.8.7 2.2 1.5l2.2 5.4c2.4-3.5 7-8 13.3-8 6.7 0 11.5 2.4 9.8 5.2l-6 9.8c-.5.9-1.3 1.6-2.7 1.1-.6-.2-1.8-.6-2.9-.6-3.7 0-7 2.8-7 7v25.2c0 1.5-.7 2.3-2.7 2.3h-11.9c-1.2 0-2.3-1.1-2.3-2.3V28.5z" style="fill:#3c0"/><path d="m172.4 27 3-2.9c.3-.3.8-.4 1.1-.1 0 0 3.3 2.3 5.6 2.3 2.5 0 4.5-1.9 4.5-4.5 0-2.5-1.8-4.9-4.8-4.9h-7.2c-.9 0-1.5-.9-1.5-1.6V1c0-.5.4-.9.9-.9h15c.5 0 .9.4.9.9v4c0 .5-.4.9-.9.9h-10V11h3.7c6.5 0 10.7 4.6 10.7 10.7 0 5.9-5 10.8-11.6 10.8-4.9 0-8.1-2.5-9.3-3.9-.6-.7-.7-1-.1-1.6z" style="fill:#0cc"/></svg>